# xmcd CD database file
#
# Track frame offsets:
#	150
#	945
#	12945
#	28775
#	48410
#	67372
#	89110
#	107465
#	125142
#	147100
#	171035
#
# Disc length: 2584 seconds
#
# Revision: 0
# Processed by: cddbd v1.5.1PL0 Copyright (c) Steve Scherf et al.
# Submitted via: CDex 1.51
#
DISCID=930a160b
DTITLE=Stardust Reveu - TO YOU
DYEAR=1984
DGENRE=JPop
TTITLE0=TO YOU
TTITLE1=What A Nite!
TTITLE2=噂のアーパー・ストリート
TTITLE3=ラッキーレイン
TTITLE4=今年の夏こそは
TTITLE5=シュガーはお年頃
TTITLE6=トワイライト・アヴェニュー
TTITLE7=ラストシーン
TTITLE8=夢伝説
TTITLE9=夕暮れのスケッチ
TTITLE10=夢伝説(Live)
EXTD=YEAR: 1984
EXTT0=
EXTT1=
EXTT2=
EXTT3=
EXTT4=
EXTT5=
EXTT6=
EXTT7=
EXTT8=
EXTT9=
EXTT10=
PLAYORDER=
